# xmcd
#
# Track frame offsets: 
#        150
#        14244
#        31451
#        67883
#        97493
#        129179
#        160521
#
# Disc length: 4770 seconds
#
# Revision: 1
# Processed by: cddbd v1.5.2PL0 Copyright (c) Steve Scherf et al.
# Submitted via: ExactAudioCopy v0.99pb4
#
DISCID=5812a007
DTITLE=Mario Piu - Love Game
DYEAR=2002
DGENRE=Dance
TTITLE0=Love Game (Video Edit)
TTITLE1=Love Game (On Air Mix)
TTITLE2=Love Game (Vocal Mix)
TTITLE3=Love Game (Mijk Van Dijk RMX)
TTITLE4=Love Game (Fastlane RMX)
TTITLE5=Love Game (Alternative Mix)
TTITLE6=data
EXTD=
EXTT0=
EXTT1=
EXTT2=
EXTT3=
EXTT4=
EXTT5=
EXTT6=
PLAYORDER=
